<?xml version="1.0" encoding="UTF-8" standalone="no"?>
<!DOCTYPE svg PUBLIC "-//W3C//DTD SVG 1.1//EN"
 "http://www.w3.org/Graphics/SVG/1.1/DTD/svg11.dtd">
<!-- Generated by graphviz version 5.0.0 (20220707.1540)
 -->
<!-- Title: StorageDiagram Pages: 1 -->
<svg width="823pt" height="220pt"
 viewBox="0.00 0.00 822.92 220.20" xmlns="http://www.w3.org/2000/svg" xmlns:xlink="http://www.w3.org/1999/xlink">
<g id="graph0" class="graph" transform="scale(1 1) rotate(0) translate(4 216.2)">
<title>StorageDiagram</title>
<polygon fill="white" stroke="transparent" points="-4,4 -4,-216.2 818.92,-216.2 818.92,4 -4,4"/>
<!-- 2 -->
<g id="node1" class="node">
<title>2</title>
<polygon fill="#f2f2f2" stroke="black" points="0,-38.1 0,-211.7 460.47,-211.7 460.47,-38.1 0,-38.1"/>
<text text-anchor="middle" x="230.23" y="-195.1" font-family="Courier New" font-size="14.00">GasContract &lt;&lt;Contract&gt;&gt;</text>
<polyline fill="none" stroke="black" points="0,-186.9 460.47,-186.9 "/>
<text text-anchor="middle" x="24.8" y="-170.3" font-family="Courier New" font-size="14.00">slot</text>
<polyline fill="none" stroke="black" points="0,-162.1 49.61,-162.1 "/>
<text text-anchor="middle" x="24.8" y="-145.5" font-family="Courier New" font-size="14.00">0</text>
<polyline fill="none" stroke="black" points="0,-137.3 49.61,-137.3 "/>
<text text-anchor="middle" x="24.8" y="-120.7" font-family="Courier New" font-size="14.00">1</text>
<polyline fill="none" stroke="black" points="0,-112.5 49.61,-112.5 "/>
<text text-anchor="middle" x="24.8" y="-95.9" font-family="Courier New" font-size="14.00">2</text>
<polyline fill="none" stroke="black" points="0,-87.7 49.61,-87.7 "/>
<text text-anchor="middle" x="24.8" y="-71.1" font-family="Courier New" font-size="14.00">3&#45;7</text>
<polyline fill="none" stroke="black" points="0,-62.9 49.61,-62.9 "/>
<text text-anchor="middle" x="24.8" y="-46.3" font-family="Courier New" font-size="14.00">8</text>
<polyline fill="none" stroke="black" points="49.61,-38.1 49.61,-186.9 "/>
<text text-anchor="middle" x="255.04" y="-170.3" font-family="Courier New" font-size="14.00">type: &lt;inherited contract&gt;.variable (bytes)</text>
<polyline fill="none" stroke="black" points="49.61,-162.1 460.47,-162.1 "/>
<text text-anchor="middle" x="126.82" y="-145.5" font-family="Courier New" font-size="14.00">unallocated (12)</text>
<polyline fill="none" stroke="black" points="204.03,-137.3 204.03,-162.1 "/>
<text text-anchor="middle" x="332.15" y="-145.5" font-family="Courier New" font-size="14.00">address: Ownable._owner (20)</text>
<polyline fill="none" stroke="black" points="49.61,-137.3 460.47,-137.3 "/>
<text text-anchor="middle" x="254.83" y="-120.7" font-family="Courier New" font-size="14.00">mapping(address=&gt;uint256): whitelist (32)</text>
<polyline fill="none" stroke="black" points="49.61,-112.5 460.47,-112.5 "/>
<text text-anchor="middle" x="254.63" y="-95.9" font-family="Courier New" font-size="14.00">mapping(address=&gt;uint256): balances (32)</text>
<polyline fill="none" stroke="black" points="49.61,-87.7 460.47,-87.7 "/>
<text text-anchor="middle" x="255.03" y="-71.1" font-family="Courier New" font-size="14.00">address[5]: administrators (160)</text>
<polyline fill="none" stroke="black" points="49.61,-62.9 460.47,-62.9 "/>
<text text-anchor="middle" x="255.04" y="-46.3" font-family="Courier New" font-size="14.00">mapping(address=&gt;uint256): whiteListStruct (32)</text>
</g>
<!-- 1 -->
<g id="node2" class="node">
<title>1</title>
<polygon fill="#f2f2f2" stroke="black" points="496.47,-0.5 496.47,-149.3 814.92,-149.3 814.92,-0.5 496.47,-0.5"/>
<text text-anchor="middle" x="655.69" y="-132.7" font-family="Courier New" font-size="14.00">address[5]: administrators &lt;&lt;Array&gt;&gt;</text>
<polyline fill="none" stroke="black" points="496.47,-124.5 814.92,-124.5 "/>
<text text-anchor="middle" x="521.27" y="-107.9" font-family="Courier New" font-size="14.00">slot</text>
<polyline fill="none" stroke="black" points="496.47,-99.7 546.08,-99.7 "/>
<text text-anchor="middle" x="521.27" y="-83.1" font-family="Courier New" font-size="14.00">3</text>
<polyline fill="none" stroke="black" points="496.47,-74.9 546.08,-74.9 "/>
<text text-anchor="middle" x="521.27" y="-58.3" font-family="Courier New" font-size="14.00">4</text>
<polyline fill="none" stroke="black" points="496.47,-50.1 546.08,-50.1 "/>
<text text-anchor="middle" x="521.27" y="-33.5" font-family="Courier New" font-size="14.00">6</text>
<polyline fill="none" stroke="black" points="496.47,-25.3 546.08,-25.3 "/>
<text text-anchor="middle" x="521.27" y="-8.7" font-family="Courier New" font-size="14.00">7</text>
<polyline fill="none" stroke="black" points="546.08,-0.5 546.08,-124.5 "/>
<text text-anchor="middle" x="680.19" y="-107.9" font-family="Courier New" font-size="14.00">type: variable (bytes)</text>
<polyline fill="none" stroke="black" points="546.08,-99.7 814.31,-99.7 "/>
<text text-anchor="middle" x="621.29" y="-83.1" font-family="Courier New" font-size="14.00">unallocated (12)</text>
<polyline fill="none" stroke="black" points="696.5,-74.9 696.5,-99.7 "/>
<text text-anchor="middle" x="755.41" y="-83.1" font-family="Courier New" font-size="14.00">address (20)</text>
<polyline fill="none" stroke="black" points="546.08,-74.9 814.31,-74.9 "/>
<text text-anchor="middle" x="621.29" y="-58.3" font-family="Courier New" font-size="14.00">unallocated (12)</text>
<polyline fill="none" stroke="black" points="696.5,-50.1 696.5,-74.9 "/>
<text text-anchor="middle" x="755.41" y="-58.3" font-family="Courier New" font-size="14.00">address (20)</text>
<polyline fill="none" stroke="black" points="546.08,-50.1 814.31,-50.1 "/>
<text text-anchor="middle" x="621.29" y="-33.5" font-family="Courier New" font-size="14.00">unallocated (12)</text>
<polyline fill="none" stroke="black" points="696.5,-25.3 696.5,-50.1 "/>
<text text-anchor="middle" x="755.41" y="-33.5" font-family="Courier New" font-size="14.00">address (20)</text>
<polyline fill="none" stroke="black" points="546.08,-25.3 814.31,-25.3 "/>
<text text-anchor="middle" x="621.29" y="-8.7" font-family="Courier New" font-size="14.00">unallocated (12)</text>
<polyline fill="none" stroke="black" points="696.5,-0.5 696.5,-25.3 "/>
<text text-anchor="middle" x="755.41" y="-8.7" font-family="Courier New" font-size="14.00">address (20)</text>
</g>
<!-- 2&#45;&gt;1 -->
<g id="edge1" class="edge">
<title>2:8&#45;&gt;1</title>
<path fill="none" stroke="black" d="M460.47,-74.9C468.83,-74.9 477.39,-74.9 486.04,-74.9"/>
<polygon fill="black" stroke="black" points="486.23,-78.4 496.23,-74.9 486.23,-71.4 486.23,-78.4"/>
</g>
</g>
</svg>
